HIERARCHY
ROOT Hips
{
	OFFSET -3.958830 18.904000 13.208200
	CHANNELS 6 Xposition Yposition Zposition Zrotation Yrotation Xrotation 
	JOINT LHipJoint
	{
		OFFSET 0.000000 0.000000 0.000000
		CHANNELS 3 Zrotation Yrotation Xrotation
		JOINT LeftUpLeg
		{
			OFFSET 1.800000 -1.400000 0.085000
			CHANNELS 3 Zrotation Yrotation Xrotation
			JOINT LeftLeg
			{
				OFFSET 2.215000 -6.000000 0.000000
				CHANNELS 3 Zrotation Yrotation Xrotation
				JOINT LeftFoot
				{
					OFFSET 2.500000 -6.900000 0.000000
					CHANNELS 3 Zrotation Yrotation Xrotation
					JOINT LeftToeBase
					{
						OFFSET 0.200000 -0.500000 1.950000
						CHANNELS 3 Zrotation Yrotation Xrotation
						End Site
						{
							OFFSET 0.000000 0.000000 0.000000
						}
					}
				}
			}
		}
	}
	JOINT RHipJoint
	{
		OFFSET 0.000000 0.000000 0.000000
		CHANNELS 3 Zrotation Yrotation Xrotation
		JOINT RightUpLeg
		{
			OFFSET -1.800000 -1.400000 0.085000
			CHANNELS 3 Zrotation Yrotation Xrotation
			JOINT RightLeg
			{
				OFFSET -2.215000 -6.000000 0.000000
				CHANNELS 3 Zrotation Yrotation Xrotation
				JOINT RightFoot
				{
					OFFSET -2.500000 -6.900000 0.000000
					CHANNELS 3 Zrotation Yrotation Xrotation
					JOINT RightToeBase
					{
						OFFSET -0.200000 -0.500000 1.950000
						CHANNELS 3 Zrotation Yrotation Xrotation
						End Site
						{
							OFFSET 0.000000 0.000000 0.000000
						}
					}
				}
			}
		}
	}
	JOINT LowerBack
	{
		OFFSET 0.000000 0.000000 0.000000
		CHANNELS 3 Zrotation Yrotation Xrotation
		JOINT Spine
		{
			OFFSET -0.087000 1.940000 -0.288900
			CHANNELS 3 Zrotation Yrotation Xrotation
			JOINT Spine1
			{
				OFFSET 0.000000 1.950000 0.060000
				CHANNELS 3 Zrotation Yrotation Xrotation
				JOINT Neck
				{
					OFFSET 0.000000 0.000000 0.000000
					CHANNELS 3 Zrotation Yrotation Xrotation
					JOINT Neck1
					{
						OFFSET 0.000000 1.600000 0.340000
						CHANNELS 3 Zrotation Yrotation Xrotation
						JOINT Head
						{
							OFFSET 0.000000 1.667000 -0.240000
							CHANNELS 3 Zrotation Yrotation Xrotation
							End Site
							{
								OFFSET 0.000000 0.000000 0.000000
							}
						}
					}
				}
				JOINT LeftShoulder
				{
					OFFSET 0.000000 0.000000 0.000000
					CHANNELS 3 Zrotation Yrotation Xrotation
					JOINT LeftArm
					{
						OFFSET 2.700000 1.550000 -0.730000
						CHANNELS 3 Zrotation Yrotation Xrotation
						JOINT LeftForeArm
						{
							OFFSET 5.450000 0.000000 0.000000
							CHANNELS 3 Zrotation Yrotation Xrotation
							JOINT LeftHand
							{
								OFFSET 3.450000 0.000000 0.000000
								CHANNELS 3 Zrotation Yrotation Xrotation
								JOINT LeftHandIndex1
								{
									OFFSET 0.750000 0.000000 0.000000
									CHANNELS 3 Zrotation Yrotation Xrotation
									End Site
									{
										OFFSET 0.000000 0.000000 0.000000
									}
								}
							}
						}
					}
				}
				JOINT RightShoulder
				{
					OFFSET 0.000000 0.000000 0.000000
					CHANNELS 3 Zrotation Yrotation Xrotation
					JOINT RightArm
					{
						OFFSET -2.700000 1.550000 -0.730000
						CHANNELS 3 Zrotation Yrotation Xrotation
						JOINT RightForeArm
						{
							OFFSET -5.450000 0.000000 0.000000
							CHANNELS 3 Zrotation Yrotation Xrotation
							JOINT RightHand
							{
								OFFSET -3.450000 0.000000 0.000000
								CHANNELS 3 Zrotation Yrotation Xrotation
								JOINT RightHandIndex1
								{
									OFFSET -0.750000 0.000000 0.000000
									CHANNELS 3 Zrotation Yrotation Xrotation
									End Site
									{
										OFFSET 0.000000 0.000000 0.000000
									}
								}
							}
						}
					}
				}
			}
		}
	}
}
MOTION
Frames: 12
Frame Time: 0.016667
1.333230 17.090110 -0.444850 -0.977201 14.146913 0.492504 -15.204148 13.268664 2.859409 2.864592 0.020270 5.675865 -8.542100 6.299930 5.428299 -0.316479 5.536326 3.123365 0.498360 0.041740 0.244960 18.571075 -9.389559 3.097056 12.718130 3.728383 -29.070431 -0.719392 -3.320503 17.718985 0.125585 -2.260332 3.919713 0.211580 0.610320 0.150470 -4.134856 -3.781835 -7.097713 20.625023 -15.969356 9.337558 -13.291928 -14.399274 8.835810 0.744950 -6.511809 -8.318279 -14.072228 6.304327 25.678969 -1.319580 1.971510 -3.424460 -11.301858 -5.696830 0.182178 -18.784110 -16.241583 -1.483423 6.986495 -41.495950 -2.687085 -3.826389 3.009839 0.441470 0.404090 -0.393960 0.390200 9.403587 3.347040 7.056379 35.529678 -11.260340 -10.303592 34.687814 42.889115 8.641591 1.495034 -2.008927 -0.407400 0.371690 -0.053340 -0.250640 
1.346860 17.079480 -0.393100 -0.090691 13.730484 0.964398 -15.239261 13.325863 2.865983 2.014043 0.200360 5.566189 -8.462503 6.382679 6.127682 -0.325593 5.583522 3.118524 0.483860 0.024320 0.221870 18.541567 -9.383680 3.004477 11.317244 3.411967 -27.632042 0.896401 -3.269246 14.881294 0.174549 -2.169288 3.962154 0.223990 0.663050 0.158100 -4.038533 -3.927402 -7.005535 19.495855 -15.717736 8.020564 -13.009310 -14.375317 9.368441 0.505674 -6.757309 -8.235086 -14.512385 6.944795 25.294648 -1.167190 2.161180 -2.236500 -11.199064 -5.299753 0.127197 -18.396350 -16.133574 -0.883860 5.050283 -39.677998 -1.851190 -3.885753 3.033171 0.403910 0.447180 -0.436800 0.394670 9.795619 3.308230 7.007658 32.714718 -11.519291 -9.271589 38.220800 43.551886 10.073033 1.470765 -2.077436 -0.422830 0.380830 -0.033980 -0.241980 
1.358190 17.078340 -0.295540 1.201489 11.648946 0.889832 -15.264146 13.380616 2.854893 0.682420 0.420860 5.829281 -8.513717 6.749156 8.543641 -0.255726 5.688957 3.075239 0.519740 0.081050 0.200170 18.529042 -9.378565 2.896861 9.412540 2.824233 -23.737375 3.260696 -3.023258 9.657845 0.165855 -2.144446 3.988885 0.253700 0.682070 0.155330 -3.959678 -4.095844 -6.879070 17.981630 -15.200073 6.686484 -12.634563 -13.997355 10.288974 -0.231021 -8.115619 -8.655594 -17.592869 8.686189 25.385892 0.706240 1.869500 -1.513420 -11.551220 -5.579958 0.314647 -16.461456 -15.806540 0.171637 -0.341061 -34.632872 0.109306 -3.888503 3.098841 0.363350 0.437990 -0.445620 0.423380 11.651677 4.837836 7.534939 26.675730 -13.120445 -7.779184 45.718767 45.673132 13.413910 1.484751 -2.190472 -0.391340 0.383850 -0.049450 -0.201610 
1.362340 17.085740 -0.185690 2.097790 8.965924 0.353314 -15.277172 13.406297 2.843748 0.231567 0.238055 5.787167 -9.418102 7.366675 11.608535 -0.211893 5.958372 2.975943 0.531880 0.097970 0.192980 18.522240 -9.364475 2.867686 8.401899 2.380522 -19.954811 4.354799 -2.875553 6.230123 0.100461 -2.275387 3.966971 0.261470 0.695020 0.141070 -3.899524 -4.207914 -6.837951 16.697321 -14.688928 5.966276 -12.102646 -13.445288 10.887701 -0.410312 -9.294198 -9.108901 -20.617966 10.547787 26.146670 1.836060 2.140970 -1.942870 -13.822883 -6.675686 0.708834 -14.176103 -14.156701 0.519592 -3.504133 -29.467555 0.861571 -3.888739 3.056753 0.395690 0.415480 -0.430610 0.434240 14.334625 7.072008 8.188874 19.493570 -14.445831 -6.113195 52.702333 47.213137 16.844363 1.512635 -2.214367 -0.400520 0.428230 -0.042300 -0.193270 
1.347740 17.102740 -0.069470 2.156125 4.882158 -1.206015 -15.242400 13.372156 2.878193 1.262574 -0.486957 6.161798 -11.884750 8.521548 14.980698 -0.123841 6.484553 2.719307 0.568860 0.090440 0.287930 18.550215 -9.360594 2.938334 8.832932 2.013247 -15.399033 4.076073 -2.811022 3.936618 -0.044352 -2.447647 3.872107 0.224730 0.557300 0.152180 -3.946739 -4.185124 -6.978742 16.194100 -13.879106 6.930228 -11.598477 -12.538883 10.666548 -0.021952 -10.144230 -9.795171 -23.907291 12.573629 29.064608 1.785660 3.367130 -3.772680 -17.073951 -8.173396 1.410671 -12.006923 -11.333616 0.328347 -6.529870 -25.638647 1.253378 -3.794485 3.044781 0.528410 0.303870 -0.330520 0.374870 16.879548 9.416714 8.823013 13.444126 -15.071905 -4.885352 58.415061 48.160093 20.061349 1.597350 -2.184930 -0.379060 0.384340 -0.042030 -0.255870 
1.337530 17.133800 0.057360 2.076381 0.545845 -3.472150 -15.151835 13.294621 3.022528 3.053886 -1.372092 6.864778 -15.733586 10.184516 17.843113 0.082137 7.127811 2.429320 0.645290 0.156190 0.425160 18.600598 -9.453832 3.001739 8.864335 1.297525 -11.004678 4.315055 -3.153311 3.479988 -0.267678 -2.638538 3.786825 0.182010 0.340550 0.128540 -4.108019 -3.960809 -7.261656 16.169338 -13.184464 9.072402 -11.925975 -11.591038 9.693826 0.997353 -10.122092 -11.096096 -26.251600 15.102343 34.936551 1.628920 5.380950 -7.145880 -21.366327 -10.502596 2.833222 -9.779885 -6.082054 -0.700413 -7.412566 -23.410389 1.107127 -3.549388 3.014139 0.717170 0.118270 -0.138250 0.344070 19.217113 12.088092 9.676625 9.300074 -15.476738 -4.289098 63.106387 47.862996 22.430956 1.729595 -2.085743 -0.332160 0.355010 -0.116000 -0.313230 
1.324520 17.150900 0.173810 2.533554 -5.349754 -4.895539 -15.075366 13.131159 3.248948 4.825343 -2.139372 6.040415 -21.448552 12.726082 20.695122 0.336916 8.062496 2.080999 0.641280 0.144010 0.483490 18.637833 -9.586826 2.989694 8.977557 0.865367 -9.002753 3.278234 -3.416148 5.502021 -0.350687 -2.739886 3.740306 0.142670 0.244170 0.088700 -4.231806 -3.570155 -7.461925 16.509962 -11.569118 10.426542 -12.338822 -9.651917 8.438652 1.689650 -10.015032 -12.184282 -27.784874 16.609545 38.839281 0.961700 6.427170 -7.697490 -23.250297 -11.174953 3.791154 -10.691382 -2.587376 -0.825260 -8.586962 -20.694990 0.919612 -3.440482 2.944474 0.802520 0.031110 -0.063590 0.307970 19.751529 13.464677 10.069567 8.589381 -14.559415 -4.094383 67.095335 48.255425 24.906367 1.845271 -1.994029 -0.334570 0.354950 -0.136240 -0.346280 
1.312960 17.165490 0.298540 2.421363 -10.135480 -6.207761 -14.983353 12.841690 3.452284 8.089655 -2.963609 4.547090 -27.444637 16.157851 24.112945 0.670486 9.225810 1.658088 0.678830 0.166130 0.561710 18.713592 -9.682017 2.991624 9.671330 0.470749 -7.112455 1.828485 -3.515084 7.067999 -0.454679 -2.853141 3.687778 0.113240 0.143900 0.089800 -4.465816 -3.004092 -7.586779 18.529539 -10.149622 10.967291 -13.827454 -7.750001 7.734898 2.422073 -9.495896 -13.290555 -28.432258 17.736741 43.374146 0.685810 6.892400 -8.071990 -24.048465 -11.732251 4.544528 -12.582802 -0.719519 -0.670499 -9.708672 -17.203138 0.625450 -3.361344 2.881365 0.868450 -0.046300 0.023250 0.289980 18.992346 14.241883 10.555024 11.030962 -13.899322 -4.734906 68.982034 48.756302 26.072562 1.932034 -1.908818 -0.295100 0.327490 -0.176340 -0.367710 
1.312600 17.183540 0.403510 2.554682 -12.768799 -8.205278 -14.945539 12.601292 3.731475 11.942580 -3.903899 2.605237 -32.535585 20.161254 28.484806 0.995435 10.459146 1.174216 0.778420 0.267660 0.645670 18.734186 -9.722180 2.933968 9.732625 0.009180 -5.412740 0.489928 -3.648857 9.256781 -0.580557 -2.989657 3.599528 0.126780 0.006350 0.122750 -4.553181 -2.665706 -7.743460 19.493851 -9.579504 12.666461 -14.601452 -6.558606 7.113826 2.900720 -9.067265 -14.245617 -29.407535 18.968690 47.304048 1.322270 6.680200 -10.464470 -24.481561 -12.204312 5.128483 -15.792483 0.025256 -0.610953 -9.591816 -14.070885 0.131522 -3.280631 2.866045 0.942510 -0.145220 0.134110 0.272980 18.524524 14.814795 10.822380 13.967493 -13.252079 -5.763254 70.131937 48.605676 26.155227 1.969704 -1.857840 -0.213340 0.269630 -0.217870 -0.384900 
1.307010 17.187050 0.495510 2.944262 -14.392452 -9.836409 -14.960663 12.416597 4.040611 15.444542 -4.604567 -0.285978 -36.022105 24.266757 33.242195 1.258487 11.609752 0.779223 0.786440 0.279530 0.654850 18.712616 -9.701494 2.837840 9.415811 -0.337810 -4.291080 -0.515560 -3.757422 11.494580 -0.636378 -3.122110 3.554155 0.126980 -0.022810 0.105730 -4.506529 -2.539396 -7.896419 19.519571 -9.042049 14.069013 -14.520768 -5.529710 6.511457 3.296177 -8.808410 -14.972507 -30.339912 19.862930 49.937364 1.471510 6.265040 -10.972790 -24.793812 -12.266341 5.539097 -20.319185 0.974505 -0.975383 -7.470117 -12.938528 -0.331473 -3.269789 2.778638 0.989300 -0.181230 0.167250 0.265440 18.160623 15.220473 11.041211 17.492561 -12.667167 -6.918845 71.615260 49.147611 26.711732 1.986505 -1.780124 -0.218120 0.296000 -0.213280 -0.393730 
1.293550 17.162600 0.590840 3.731254 -15.580793 -10.896753 -15.008693 12.221608 4.396936 18.313949 -5.298751 -4.295753 -37.786322 28.668720 39.244722 1.528327 12.811232 0.426109 0.730770 0.205260 0.631440 18.677341 -9.630465 2.711997 8.993017 -0.523224 -3.821029 -1.412629 -3.782068 13.509056 -0.629312 -3.224699 3.536854 0.098190 0.029370 0.078640 -4.400908 -2.511776 -8.062210 18.476738 -8.448147 14.717662 -14.364213 -4.662144 5.914876 3.579865 -8.589585 -15.312745 -29.923497 20.025151 50.844199 2.093210 5.873690 -9.569730 -24.537258 -11.934356 5.777624 -25.175467 2.151732 -1.568776 -6.135744 -12.637122 -0.639359 -3.315418 2.688687 0.998960 -0.163840 0.136070 0.256340 17.397426 15.324842 11.066904 21.333948 -11.625392 -7.873125 72.981728 49.408213 27.113882 2.002048 -1.708745 -0.266710 0.347080 -0.179400 -0.398580 
1.287310 17.131160 0.664610 3.990149 -16.239189 -12.130224 -15.076607 11.987137 4.832490 21.411709 -5.953142 -8.768117 -37.943858 32.995162 46.063459 1.782822 13.937977 0.052148 0.735420 0.195980 0.656240 18.631899 -9.505509 2.619904 8.718668 -0.825320 -2.764661 -1.524858 -3.997593 14.892615 -0.678681 -3.371183 3.469277 0.078370 -0.019990 0.110560 -4.252951 -2.508309 -8.336245 17.500156 -8.115752 16.519403 -14.040131 -3.923244 5.118601 4.145872 -8.043816 -15.572403 -28.531087 19.678598 53.060049 1.060620 5.956930 -10.042080 -24.957966 -11.923250 5.911215 -29.429976 3.214632 -2.364802 -4.296562 -12.390299 -0.944903 -3.317497 2.679346 1.026660 -0.181270 0.171120 0.230330 16.731691 15.581675 11.049288 25.897842 -10.223912 -9.167445 73.614154 50.563486 27.658414 2.025941 -1.667726 -0.240900 0.307770 -0.170180 -0.417680 
